<?xml version="1.0" encoding="utf-8"?>
<!-- Generator: Adobe Illustrator 17.0.0, SVG Export Plug-In . SVG Version: 6.00 Build 0)  -->
<!DOCTYPE svg PUBLIC "-//W3C//DTD SVG 1.1//EN" "http://www.w3.org/Graphics/SVG/1.1/DTD/svg11.dtd">
<svg version="1.1" id="Capa_1" xmlns="http://www.w3.org/2000/svg" xmlns:xlink="http://www.w3.org/1999/xlink" x="0px" y="0px"
	 width="10px" height="6px" viewBox="0 0 10 6" enable-background="new 0 0 10 6" xml:space="preserve">
<title>dropdown</title>
<desc>Created with Sketch.</desc>
<g id="Page-1">
	<g id="gifOS_misguifos" transform="translate(-1184.000000, -83.000000)">
		<g id="nav-bar" transform="translate(1.000000, 1.000000)">
			<g id="dropdown_tema_normal" transform="translate(1038.000000, 67.000000)">
				
					<g id="dropdown" transform="translate(150.000000, 18.000000) rotate(-270.000000) translate(-150.000000, -18.000000) translate(147.000000, 13.000000)">
					<path id="back-copy" fill="#FFFFFF" d="M4,5v1H3v1H2v1H1v1H0V0h1v1h1v1h1v1h1v1h1v1H4z"/>
					<path id="Combined-Shape" fill="#110038" d="M1,9V8h1V7h1V6h1V5h2v1H5v1H4v1H3v1H2v1H1V9z"/>
				</g>
			</g>
		</g>
	</g>
</g>
</svg>
